<?xml version="1.0" standalone="no"?>
<!DOCTYPE svg PUBLIC "-//W3C//DTD SVG 20010904//EN"
 "http://www.w3.org/TR/2001/REC-SVG-20010904/DTD/svg10.dtd">
<svg version="1.0" xmlns="http://www.w3.org/2000/svg"
 width="470.000000pt" height="158.000000pt" viewBox="0 0 470.000000 158.000000"
 preserveAspectRatio="xMidYMid meet">

<g transform="translate(0.000000,158.000000) scale(0.100000,-0.100000)"
fill="#000000" stroke="none">
<path d="M440 785 l0 -515 43 6 c23 4 58 9 77 13 l35 7 5 267 5 268 89 -256
c78 -225 91 -255 110 -255 11 0 51 3 89 7 l67 6 0 483 0 484 -80 0 -80 0 -2
-287 -3 -288 -104 288 -104 287 -74 0 -73 0 0 -515z"/>
<path d="M1120 824 l0 -477 48 6 c26 3 125 11 220 18 l172 12 0 78 0 78 -97
-7 c-54 -4 -118 -7 -143 -7 l-45 0 -3 118 -3 117 111 0 110 0 0 80 0 79 -107
3 -108 3 0 105 0 105 143 3 142 3 0 79 0 80 -220 0 -220 0 0 -476z"/>
<path d="M1670 1220 l0 -80 80 0 80 0 0 -370 0 -370 80 0 80 0 2 368 3 367 83
3 82 3 0 79 0 80 -245 0 -245 0 0 -80z"/>
<path d="M2270 850 l0 -451 78 3 77 3 3 183 2 182 111 0 110 0 -3 78 -3 77
-107 3 -108 3 0 104 0 105 145 0 146 0 -3 78 -3 77 -222 3 -223 2 0 -450z"/>
<path d="M2820 851 l0 -449 48 -6 c26 -3 125 -8 220 -12 l172 -6 0 74 0 75
-46 7 c-26 3 -75 6 -109 6 -34 0 -77 3 -94 6 l-31 6 0 374 0 374 -80 0 -80 0
0 -449z"/>
<path d="M3397 1293 c-4 -3 -7 -213 -7 -465 0 -358 3 -459 13 -463 6 -2 42 -6
80 -8 l67 -5 0 474 0 474 -73 0 c-41 0 -77 -3 -80 -7z"/>
<path d="M3700 1287 c0 -8 38 -113 85 -233 47 -121 87 -226 87 -235 1 -9 -42
-118 -96 -243 -55 -124 -97 -228 -94 -231 2 -3 39 -8 82 -13 l78 -8 19 45 c63
151 95 221 99 221 3 0 31 -67 63 -148 l57 -148 88 -11 c48 -6 88 -10 89 -9 2
2 -15 47 -37 102 -21 54 -68 175 -104 267 l-65 169 101 231 c55 128 102 238
105 245 4 10 -14 12 -83 10 l-88 -3 -30 -70 c-17 -39 -44 -100 -59 -135 l-29
-65 -52 135 -52 135 -82 3 c-66 2 -82 0 -82 -11z"/>
</g>
</svg>
